<?xml version="1.0" encoding="utf-8"?>

<!DOCTYPE svg PUBLIC "-//W3C//DTD SVG 1.1//EN" "http://www.w3.org/Graphics/SVG/1.1/DTD/svg11.dtd">
<!-- Uploaded to: SVG Repo, www.svgrepo.com, Generator: SVG Repo Mixer Tools -->
<svg height="800px" width="800px" version="1.1" id="_x32_" xmlns="http://www.w3.org/2000/svg" xmlns:xlink="http://www.w3.org/1999/xlink" 
	 viewBox="0 0 512 512"  xml:space="preserve">
<style type="text/css">
	.st0{fill:#000000;}
</style>
<g>
	<path class="st0" d="M368.244,0H143.755c-20.223,0-36.711,16.526-36.711,36.734v438.539c0,20.178,16.488,36.726,36.711,36.726
		h224.489c20.186,0,36.711-16.548,36.711-36.726V357.955V36.734C404.955,16.526,388.43,0,368.244,0z M256,477.406
		c-6.066,0-10.996-4.939-10.996-11.02c0-6.072,4.931-11.011,10.996-11.011c6.058,0,11.035,4.939,11.035,11.011
		C267.035,472.468,262.065,477.406,256,477.406z M382.031,432.406H129.983V62.834h252.048V432.406z"/>
	<path class="st0" d="M220.499,257.018h78.24c0.477-12.268,1.362-25.73,2.972-40.236c2.231-20.096,16.087-88.519-34.208-92.543
		c-46.104-3.69-60.345,46.271-52.299,96.566C216.951,231.726,218.805,244.357,220.499,257.018z"/>
	<path class="st0" d="M222.473,299.264c1.059,10.498,1.702,19.082,1.702,24.142c0,16.095,10.059,46.271,38.216,46.271
		c28.173,0,30.184-30.176,32.196-44.259c0.757-5.264,0.666-14.204,0.575-26.154H222.473z"/>
</g>
</svg>